<svg xmlns="http://www.w3.org/2000/svg" xmlns:xlink="http://www.w3.org/1999/xlink" width="466" height="530" viewBox="0 0 466 530">
  <defs>
    <filter id="Path_1" x="64" y="0" width="402" height="530" filterUnits="userSpaceOnUse">
      <feOffset input="SourceAlpha"/>
      <feGaussianBlur stdDeviation="3" result="blur"/>
      <feFlood/>
      <feComposite operator="in" in2="blur"/>
      <feComposite in="SourceGraphic"/>
    </filter>
    <filter id="Path_4" x="0" y="240" width="402" height="210" filterUnits="userSpaceOnUse">
      <feOffset input="SourceAlpha"/>
      <feGaussianBlur stdDeviation="3" result="blur-2"/>
      <feFlood flood-opacity="0.161"/>
      <feComposite operator="in" in2="blur-2"/>
      <feComposite in="SourceGraphic"/>
    </filter>
    <filter id="Path_5" x="69.744" y="297.32" width="87.856" height="107.68" filterUnits="userSpaceOnUse">
      <feOffset dy="3" input="SourceAlpha"/>
      <feGaussianBlur stdDeviation="3" result="blur-3"/>
      <feFlood flood-opacity="0.161"/>
      <feComposite operator="in" in2="blur-3"/>
      <feComposite in="SourceGraphic"/>
    </filter>
    <filter id="Path_6" x="155.824" y="298.472" width="99.64" height="106.528" filterUnits="userSpaceOnUse">
      <feOffset dy="3" input="SourceAlpha"/>
      <feGaussianBlur stdDeviation="3" result="blur-4"/>
      <feFlood flood-opacity="0.161"/>
      <feComposite operator="in" in2="blur-4"/>
      <feComposite in="SourceGraphic"/>
    </filter>
    <filter id="Path_7" x="255.136" y="298.456" width="80.944" height="106.528" filterUnits="userSpaceOnUse">
      <feOffset dy="3" input="SourceAlpha"/>
      <feGaussianBlur stdDeviation="3" result="blur-5"/>
      <feFlood flood-opacity="0.161"/>
      <feComposite operator="in" in2="blur-5"/>
      <feComposite in="SourceGraphic"/>
    </filter>
  </defs>
  <g id="pdf" transform="translate(-23 9)">
    <g transform="matrix(1, 0, 0, 1, 23, -9)" filter="url(#Path_1)">
      <path id="Path_1-2" data-name="Path 1" d="M128,0A32.094,32.094,0,0,0,96,32V480a32.094,32.094,0,0,0,32,32H448a32.094,32.094,0,0,0,32-32V128L352,0Z" transform="translate(-23 9)" fill="#e2e5e7"/>
    </g>
    <path id="Path_2" data-name="Path 2" d="M384,128h96L352,0V96A32.094,32.094,0,0,0,384,128Z" fill="#b0b7bd"/>
    <path id="Path_3" data-name="Path 3" d="M480,224l-96-96h96Z" fill="#cad1d8"/>
    <g transform="matrix(1, 0, 0, 1, 23, -9)" filter="url(#Path_4)">
      <path id="Path_4-2" data-name="Path 4" d="M416,416a16.047,16.047,0,0,1-16,16H48a16.047,16.047,0,0,1-16-16V256a16.047,16.047,0,0,1,16-16H400a16.047,16.047,0,0,1,16,16Z" transform="translate(-23 9)" fill="#f15642"/>
    </g>
    <g id="Group_1" data-name="Group 1">
      <g transform="matrix(1, 0, 0, 1, 23, -9)" filter="url(#Path_5)">
        <path id="Path_5-2" data-name="Path 5" d="M101.744,303.152a8.8,8.8,0,0,1,8.688-8.832h29.552c16.64,0,31.616,11.136,31.616,32.48,0,20.224-14.976,31.488-31.616,31.488h-21.36v16.9c0,5.632-3.584,8.816-8.192,8.816a8.62,8.62,0,0,1-8.688-8.816Zm16.88,7.28V342.3h21.36c8.576,0,15.36-7.568,15.36-15.5,0-8.944-6.784-16.368-15.36-16.368Z" transform="translate(-23 9)" fill="#fff"/>
      </g>
      <g transform="matrix(1, 0, 0, 1, 23, -9)" filter="url(#Path_6)">
        <path id="Path_6-2" data-name="Path 6" d="M196.656,384c-4.224,0-8.832-2.3-8.832-7.92V303.408c0-4.592,4.608-7.936,8.832-7.936h29.3c58.464,0,57.184,88.528,1.152,88.528Zm8.064-72.912V368.4h21.232c34.544,0,36.08-57.312,0-57.312H204.72Z" transform="translate(-23 9)" fill="#fff"/>
      </g>
      <g transform="matrix(1, 0, 0, 1, 23, -9)" filter="url(#Path_7)">
        <path id="Path_7-2" data-name="Path 7" d="M303.872,312.112v20.336H336.5c4.608,0,9.216,4.608,9.216,9.072,0,4.224-4.608,7.68-9.216,7.68H303.872v26.864a7.579,7.579,0,0,1-7.664,7.92c-5.632,0-9.072-3.44-9.072-7.92V303.392c0-4.592,3.456-7.936,9.072-7.936H341.12c5.632,0,8.96,3.344,8.96,7.936a8.839,8.839,0,0,1-8.96,8.7H303.872Z" transform="translate(-23 9)" fill="#fff"/>
      </g>
    </g>
    <path id="Path_8" data-name="Path 8" d="M400,432H96v16H400a16.047,16.047,0,0,0,16-16V416A16.047,16.047,0,0,1,400,432Z" fill="#cad1d8"/>
  </g>
</svg>
