<svg xmlns="http://www.w3.org/2000/svg" width="633" height="92" viewBox="0 0 633 92">
  <g id="Group_1" data-name="Group 1" transform="translate(-915 363)" style="color: #fff;">
    <path id="Discord-Wordmark-Black" d="M53.2,20.3H20V57.9l22.1,20V41.4H54c7.5,0,11.2,3.7,11.2,9.5V78.8c0,5.8-3.5,9.7-11.2,9.7H20v21.2H53.2c17.8.1,34.5-8.8,34.5-29.4V50.2c0-20.8-16.7-29.9-34.5-29.9ZM227.3,80.4V49.6c0-11.1,19.8-13.7,25.8-2.5l18.3-7.5C264.3,23.7,251.1,19,240.2,19c-17.8,0-35.4,10.4-35.4,30.6V80.4c0,20.3,17.6,30.6,35,30.6a35.743,35.743,0,0,0,32-20.1l-19.6-9.1c-4.8,12.4-24.9,9.4-24.9-1.4ZM166.7,53.8c-6.9-1.5-11.5-4-11.8-8.3.4-10.4,16.3-10.7,25.6-.8l14.7-11.4C186,22,175.6,19,164.8,19c-16.3,0-32.1,9.2-32.1,26.8,0,17.1,13,26.2,27.3,28.4,7.3,1,15.4,3.9,15.2,9-.6,9.6-20.2,9.1-29.1-1.8L132,94.8c8.3,10.7,19.6,16.2,30.2,16.2,16.3,0,34.4-9.5,35.1-26.8,1-22-14.8-27.5-30.6-30.4ZM99.8,109.7h22.4V20.3H99.8v89.4ZM477.5,20.3H444.3V57.9l22.1,20V41.4h11.8c7.5,0,11.2,3.7,11.2,9.5V78.8c0,5.8-3.5,9.7-11.2,9.7h-34v21.2h33.2c17.8.1,34.5-8.8,34.5-29.4V50.2c.1-20.8-16.6-29.9-34.4-29.9ZM314.6,19c-18.4,0-36.7,10.1-36.7,30.7V80.3c0,20.5,18.4,30.7,36.9,30.7,18.4,0,36.7-10.2,36.7-30.7V49.7C351.5,29.2,333,19,314.6,19ZM329,80.3c0,6.4-7.2,9.7-14.3,9.7-7.2,0-14.4-3.2-14.4-9.7V49.7c0-6.6,7-10.1,14-10.1,7.3,0,14.7,3.2,14.7,10.1V80.3ZM431.8,49.7c-.5-21-14.7-29.4-33-29.4H363.3v89.5H386V81.3h4l20.6,28.4h28L414.4,79c10.8-3.4,17.4-12.7,17.4-29.3ZM399.2,61.8H386V41.4h13.2c14.2,0,14.2,20.4,0,20.4Z" transform="translate(895 -382)"/>
    <path id="sign-in-alt-solid" d="M97.622,154.113H77.91a2.824,2.824,0,0,1-2.816-2.816V141.91a2.824,2.824,0,0,1,2.816-2.816H97.622a7.5,7.5,0,0,0,7.509-7.509V86.528a7.5,7.5,0,0,0-7.509-7.509H77.91A2.824,2.824,0,0,1,75.094,76.2V66.816A2.824,2.824,0,0,1,77.91,64H97.622A22.534,22.534,0,0,1,120.15,86.528v45.056A22.534,22.534,0,0,1,97.622,154.113ZM86.593,106.944,47.168,67.52a5.641,5.641,0,0,0-9.621,3.989V94.038H5.632A5.619,5.619,0,0,0,0,99.67V122.2a5.619,5.619,0,0,0,5.632,5.632H37.547v22.528a5.641,5.641,0,0,0,9.621,3.989l39.424-39.424A5.68,5.68,0,0,0,86.593,106.944Z" transform="translate(1427.85 -427)"/>
  </g>
</svg>
