<svg xmlns="http://www.w3.org/2000/svg" xmlns:xlink="http://www.w3.org/1999/xlink" width="683" height="754" viewBox="0 0 683 754">
  <defs>
    <style>
      .cls-1, .cls-10 {
        fill: none;
      }

      .cls-1 {
        stroke: #c00;
        stroke-width: 40px;
      }

      .cls-2 {
        fill: #9d0000;
      }

      .cls-2, .cls-3 {
        opacity: 0.34;
      }

      .cls-3, .cls-8 {
        fill: #fff;
      }

      .cls-4 {
        fill: #e2e5e7;
        stroke: #707070;
      }

      .cls-5 {
        fill: #b0b7bd;
      }

      .cls-6 {
        fill: #cad1d8;
      }

      .cls-7 {
        fill: #c00;
      }

      .cls-8 {
        font-size: 151px;
        font-family: SquadaOne-Regular, Squada One;
      }

      .cls-9 {
        stroke: none;
      }

      .cls-11 {
        filter: url(#GUIDE);
      }

      .cls-12 {
        filter: url(#Path_4);
      }

      .cls-13 {
        filter: url(#Path_1);
      }

      .cls-14 {
        filter: url(#Image_12);
      }

      .cls-15 {
        filter: url(#Image_11);
      }
    </style>
    <filter id="Image_11" x="0" y="0" width="683" height="754" filterUnits="userSpaceOnUse">
      <feOffset input="SourceAlpha"/>
      <feGaussianBlur stdDeviation="3" result="blur"/>
      <feFlood/>
      <feComposite operator="in" in2="blur"/>
      <feComposite in="SourceGraphic"/>
    </filter>
    <filter id="Image_12" x="45" y="45" width="590" height="664" filterUnits="userSpaceOnUse">
      <feOffset input="SourceAlpha"/>
      <feGaussianBlur stdDeviation="3" result="blur-2"/>
      <feFlood flood-opacity="0.729" result="color"/>
      <feComposite operator="out" in="SourceGraphic" in2="blur-2"/>
      <feComposite operator="in" in="color"/>
      <feComposite operator="in" in2="SourceGraphic"/>
    </filter>
    <filter id="Path_1" x="151.942" y="115.887" width="396.544" height="522.392" filterUnits="userSpaceOnUse">
      <feOffset input="SourceAlpha"/>
      <feGaussianBlur stdDeviation="3" result="blur-3"/>
      <feFlood/>
      <feComposite operator="in" in2="blur-3"/>
      <feComposite in="SourceGraphic"/>
    </filter>
    <filter id="Path_4" x="89.518" y="352.352" width="395.544" height="206.772" filterUnits="userSpaceOnUse">
      <feOffset input="SourceAlpha"/>
      <feGaussianBlur stdDeviation="3" result="blur-4"/>
      <feFlood/>
      <feComposite operator="in" in2="blur-4"/>
      <feComposite in="SourceGraphic"/>
    </filter>
    <filter id="GUIDE" x="116.012" y="364.459" width="324" height="178" filterUnits="userSpaceOnUse">
      <feOffset dy="3" input="SourceAlpha"/>
      <feGaussianBlur stdDeviation="3" result="blur-5"/>
      <feFlood flood-opacity="0.161"/>
      <feComposite operator="in" in2="blur-5"/>
      <feComposite in="SourceGraphic"/>
    </filter>
  </defs>
  <g id="Group_24" data-name="Group 24" transform="translate(1199 -3520)">
    <g class="cls-15" transform="matrix(1, 0, 0, 1, -1199, 3520)">
      <g id="Image_11-2" data-name="Image 11" class="cls-1" transform="translate(9 9)">
        <rect class="cls-9" width="665" height="736" rx="68"/>
        <rect class="cls-10" x="20" y="20" width="625" height="696" rx="48"/>
      </g>
    </g>
    <g data-type="innerShadowGroup">
      <rect id="Image_12-2" data-name="Image 12" class="cls-2" width="590" height="664" rx="39" transform="translate(-1154 3565)"/>
      <g class="cls-14" transform="matrix(1, 0, 0, 1, -1199, 3520)">
        <rect id="Image_12-3" data-name="Image 12" class="cls-3" width="590" height="664" rx="39" transform="translate(45 45)"/>
      </g>
    </g>
    <g id="Group_22" data-name="Group 22" transform="translate(-1100.482 3645.387)">
      <g id="pdf">
        <g class="cls-13" transform="matrix(1, 0, 0, 1, -98.52, -125.39)">
          <path id="Path_1-2" data-name="Path 1" class="cls-4" d="M127.462,0A31.554,31.554,0,0,0,96,31.462V471.93a31.554,31.554,0,0,0,31.462,31.462h314.62a31.554,31.554,0,0,0,31.462-31.462V125.848L347.7,0Z" transform="translate(65.44 125.39)"/>
        </g>
        <path id="Path_2" data-name="Path 2" class="cls-5" d="M383.462,125.848h94.386L352,0V94.386A31.554,31.554,0,0,0,383.462,125.848Z" transform="translate(-37.38)"/>
        <path id="Path_3" data-name="Path 3" class="cls-6" d="M478.386,222.386,384,128h94.386Z" transform="translate(-37.918 -2.152)"/>
        <g class="cls-12" transform="matrix(1, 0, 0, 1, -98.52, -125.39)">
          <path id="Path_4-2" data-name="Path 4" class="cls-7" d="M409.544,413.041a15.777,15.777,0,0,1-15.731,15.731H47.731A15.777,15.777,0,0,1,32,413.041V255.731A15.777,15.777,0,0,1,47.731,240H393.813a15.777,15.777,0,0,1,15.731,15.731Z" transform="translate(66.52 121.35)"/>
        </g>
        <path id="Path_8" data-name="Path 8" class="cls-6" d="M394.889,431.731H96v15.731H394.889a15.777,15.777,0,0,0,15.731-15.731V416a15.777,15.777,0,0,1-15.731,15.731Z" transform="translate(-33.076 -6.994)"/>
        <g class="cls-11" transform="matrix(1, 0, 0, 1, -98.52, -125.39)">
          <text id="GUIDE-2" data-name="GUIDE" class="cls-8" transform="translate(125.01 500.46)"><tspan x="0" y="0">GUIDE</tspan></text>
        </g>
      </g>
    </g>
  </g>
</svg>
