<svg xmlns="http://www.w3.org/2000/svg" viewBox="0 0 200 200"><defs><style>.cls-1{fill:#fff;}</style></defs><g id="Layer_2" data-name="Layer 2"><g id="Layer_1-2" data-name="Layer 1"><path d="M200,200H0V0H200ZM65.79,7.63c-1,.74-2.94,1.71-4.1,3.29-5.9,8-11.65,16.15-17.33,24.32-1.07,1.55-2.27,3.48-2.26,5.22,0,6.92.61,13.84.78,20.77,0,1.51-.29,3.49-1.25,4.48-3.56,3.68-7.56,6.92-11.19,10.52-5.62,5.56-12,10.15-12.78,19.52-.74,9.17-3.7,18.15-5.6,27.23-1.29,6.15-2,12,.83,18.32C19.51,156,25.31,171,31.42,186c1,2.48,2.42,3.63,5.33,2.76,7.47-2.25,15-4.41,22.55-6.3,4.06-1,8.46-2.49,12.37-1.8a47.22,47.22,0,0,1,15,5.8c10.93,6.28,21.81,5.86,33.21,1.63,10.23-3.79,20.79-5.94,31.84-5.07,4,.31,8-.19,12,.11s5.76-1.23,6.39-5c3-18.26,9.21-35.57,16.79-52.35,2.8-6.19,2.9-11.5-.85-17.19-2.33-3.53-3.85-7.6-6-11.29-1.65-2.89-1.66-5.46-.41-8.62A147.34,147.34,0,0,0,185.37,71a8.49,8.49,0,0,0-1.18-6.15c-2.64-3.93-6.19-7.26-8.81-11.21C165,38,151.41,25.39,137.5,13.08a7.9,7.9,0,0,0-4.82-2c-9.44.14-18.87.6-28.3.93-3.55.13-7.17.7-10.65.22C84.84,11,76,9.35,65.79,7.63Z"/><path class="cls-1" d="M65.79,7.63c10.22,1.72,19,3.4,27.94,4.6,3.48.48,7.1-.09,10.65-.22,9.43-.33,18.86-.79,28.3-.93a7.9,7.9,0,0,1,4.82,2C151.41,25.39,165,38,175.38,53.64c2.62,4,6.17,7.28,8.81,11.21A8.49,8.49,0,0,1,185.37,71a147.34,147.34,0,0,1-5.75,17.62c-1.25,3.16-1.24,5.73.41,8.62,2.11,3.69,3.63,7.76,6,11.29,3.75,5.69,3.65,11,.85,17.19-7.58,16.78-13.74,34.09-16.79,52.35-.63,3.79-2.48,5.33-6.39,5s-8,.2-12-.11c-11-.87-21.61,1.28-31.84,5.07-11.4,4.23-22.28,4.65-33.21-1.63a47.22,47.22,0,0,0-15-5.8c-3.91-.69-8.31.78-12.37,1.8-7.57,1.89-15.08,4.05-22.55,6.3-2.91.87-4.31-.28-5.33-2.76C25.31,171,19.51,156,12.89,141.3c-2.84-6.31-2.12-12.17-.83-18.32,1.9-9.08,4.86-18.06,5.6-27.23.76-9.37,7.16-14,12.78-19.52,3.63-3.6,7.63-6.84,11.19-10.52,1-1,1.29-3,1.25-4.48-.17-6.93-.74-13.85-.78-20.77,0-1.74,1.19-3.67,2.26-5.22C50,27.07,55.79,18.93,61.69,10.92,62.85,9.34,64.83,8.37,65.79,7.63ZM48.85,69,28,88.44c.76.7,1.06,1.21,1.49,1.34C42.66,93.86,55.84,98,69.1,101.86c3.1.91,6.67,1.61,9.75,1,15.65-3.05,31.21-6.54,46.78-10a3.46,3.46,0,0,0,2.24-2.15c1.24-7,2.25-14.09,3.45-21.87-8.92,4.45-17,8.77-25.35,12.48-2.82,1.25-6.33,1.38-9.5,1.28-3.72-.12-7.42-1-11.12-1.64-9-1.45-18.23-1.61-26.25-6.9C56,72,52.41,70.71,48.85,69Zm65-29.51c-5.15-6.51-10.29-13.06-15.54-19.51-.51-.63-1.73-.8-2.65-.94-8.52-1.37-17-2.78-25.58-3.9a5.26,5.26,0,0,0-4.22,1.73c-5.43,8.09-10.6,16.36-15.91,24.69,9.84,3.33,19.19,6.63,28.64,9.58A10.57,10.57,0,0,0,85,50.87C94.61,47.27,104.06,43.35,113.83,39.44ZM105.18,124c-11-.71-20.78-1.3-30.6-2-5.08-.35-10.16-.72-15.22-1.33-9.4-1.12-18.77-2.49-28.18-3.56a4.2,4.2,0,0,0-3.42,1.7c-2.13,4.14-3.88,8.47-5.75,12.68.56.54.87,1,1.29,1.19,11.86,4.45,23.7,9,35.64,13.17a9,9,0,0,0,6.23-.57c11.71-5.79,23.29-11.82,34.88-17.83A59.36,59.36,0,0,0,105.18,124Z"/><path d="M48.85,69C52.41,70.71,56,72,59.1,74.09c8,5.29,17.28,5.45,26.25,6.9,3.7.6,7.4,1.52,11.12,1.64,3.17.1,6.68,0,9.5-1.28,8.35-3.71,16.43-8,25.35-12.48-1.2,7.78-2.21,14.84-3.45,21.87a3.46,3.46,0,0,1-2.24,2.15c-15.57,3.44-31.13,6.93-46.78,10-3.08.6-6.65-.1-9.75-1-13.26-3.85-26.44-8-39.63-12.08-.43-.13-.73-.64-1.49-1.34Z"/><path d="M113.83,39.44c-9.77,3.91-19.22,7.83-28.8,11.43a10.57,10.57,0,0,1-6.46.22c-9.45-3-18.8-6.25-28.64-9.58,5.31-8.33,10.48-16.6,15.91-24.69a5.26,5.26,0,0,1,4.22-1.73c8.55,1.12,17.06,2.53,25.58,3.9.92.14,2.14.31,2.65.94C103.54,26.38,108.68,32.93,113.83,39.44Z"/><path d="M105.18,124a59.36,59.36,0,0,1-5.13,3.47c-11.59,6-23.17,12-34.88,17.83a9,9,0,0,1-6.23.57c-11.94-4.2-23.78-8.72-35.64-13.17-.42-.16-.73-.65-1.29-1.19,1.87-4.21,3.62-8.54,5.75-12.68a4.2,4.2,0,0,1,3.42-1.7c9.41,1.07,18.78,2.44,28.18,3.56,5.06.61,10.14,1,15.22,1.33C84.4,122.67,94.23,123.26,105.18,124Z"/></g></g></svg>