<svg xmlns="http://www.w3.org/2000/svg" viewBox="0 0 178.95 184.6"><defs><style>.cls-1{fill:#fff;}.cls-1,.cls-2{stroke:#000;stroke-miterlimit:10;}.cls-2{fill:none;}</style></defs><g id="Layer_2" data-name="Layer 2"><g id="Layer_1-2" data-name="Layer 1"><path class="cls-1" d="M55.36.53c10.22,1.72,19,3.4,27.94,4.61,3.48.47,7.1-.09,10.65-.22,9.44-.34,18.87-.8,28.3-.94a7.91,7.91,0,0,1,4.82,2C141,18.29,154.57,30.9,165,46.55c2.62,3.94,6.17,7.27,8.81,11.21A8.52,8.52,0,0,1,175,63.9a151.18,151.18,0,0,1-5.75,17.63,9.06,9.06,0,0,0,.4,8.61c2.11,3.7,3.63,7.76,6,11.3,3.75,5.69,3.65,11,.86,17.18-7.59,16.78-13.75,34.1-16.8,52.36-.63,3.79-2.48,5.32-6.39,5s-8,.19-12-.12c-11-.86-21.61,1.29-31.84,5.08-11.39,4.23-22.28,4.64-33.21-1.63a47,47,0,0,0-14.94-5.81c-3.91-.68-8.32.79-12.38,1.8-7.57,1.89-15.07,4.06-22.55,6.3-2.9.87-4.31-.27-5.32-2.76C14.89,164,9.08,148.89,2.46,134.2-.38,127.89.35,122,1.63,115.89c1.9-9.09,4.86-18.07,5.6-27.24C8,79.29,14.4,74.69,20,69.13c3.63-3.6,7.63-6.84,11.19-10.51,1-1,1.29-3,1.25-4.49-.17-6.92-.74-13.84-.77-20.76,0-1.75,1.18-3.68,2.25-5.22C39.62,20,45.36,11.83,51.27,3.82,52.43,2.25,54.4,1.28,55.36.53ZM38.42,61.85,17.55,81.35c.76.69,1.06,1.21,1.49,1.34,13.19,4.07,26.37,8.22,39.63,12.08,3.11.9,6.67,1.61,9.75,1,15.65-3.06,31.21-6.54,46.78-10a3.47,3.47,0,0,0,2.25-2.15c1.23-7,2.25-14.09,3.44-21.86-8.91,4.44-17,8.76-25.35,12.48-2.81,1.25-6.33,1.38-9.5,1.28-3.72-.13-7.42-1.05-11.12-1.64C66,72.45,56.69,72.28,48.67,67,45.57,64.94,42,63.61,38.42,61.85Zm65-29.51c-5.16-6.5-10.3-13.05-15.55-19.51-.51-.62-1.72-.79-2.65-.94-8.52-1.36-17-2.78-25.58-3.89a5.21,5.21,0,0,0-4.22,1.73C50,17.82,44.82,26.09,39.5,34.42,49.35,37.75,58.69,41,68.14,44a10.68,10.68,0,0,0,6.47-.23C84.18,40.18,93.63,36.26,103.41,32.34Zm-8.66,84.53c-11-.7-20.78-1.3-30.6-2-5.08-.35-10.16-.72-15.21-1.32-9.41-1.13-18.78-2.5-28.19-3.56a4.19,4.19,0,0,0-3.42,1.69c-2.12,4.14-3.88,8.47-5.75,12.69.57.53.87,1,1.3,1.19,11.85,4.44,23.69,9,35.64,13.16a8.85,8.85,0,0,0,6.22-.57c11.71-5.78,23.29-11.82,34.89-17.83A59.48,59.48,0,0,0,94.75,116.87Z"/><path class="cls-2" d="M38.42,61.85C42,63.61,45.57,64.94,48.67,67c8,5.29,17.28,5.46,26.25,6.91,3.7.59,7.4,1.51,11.12,1.64,3.17.1,6.69,0,9.5-1.28,8.35-3.72,16.44-8,25.35-12.48-1.19,7.77-2.21,14.84-3.44,21.86a3.47,3.47,0,0,1-2.25,2.15c-15.57,3.45-31.13,6.93-46.78,10-3.08.6-6.64-.11-9.75-1-13.26-3.86-26.44-8-39.63-12.08-.43-.13-.73-.65-1.49-1.34Z"/><path class="cls-2" d="M103.41,32.34c-9.78,3.92-19.23,7.84-28.8,11.43a10.68,10.68,0,0,1-6.47.23c-9.45-3-18.79-6.25-28.64-9.58C44.82,26.09,50,17.82,55.41,9.73A5.21,5.21,0,0,1,59.63,8c8.55,1.11,17.06,2.53,25.58,3.89.93.15,2.14.32,2.65.94C93.11,19.29,98.25,25.84,103.41,32.34Z"/><path class="cls-2" d="M94.75,116.87a59.48,59.48,0,0,1-5.12,3.47c-11.6,6-23.18,12-34.89,17.83a8.85,8.85,0,0,1-6.22.57c-12-4.19-23.79-8.72-35.64-13.16-.43-.16-.73-.66-1.3-1.19,1.87-4.22,3.63-8.55,5.75-12.69A4.19,4.19,0,0,1,20.75,110c9.41,1.06,18.78,2.43,28.19,3.56,5.05.6,10.13,1,15.21,1.32C74,115.57,83.8,116.17,94.75,116.87Z"/></g></g></svg>