<svg xmlns="http://www.w3.org/2000/svg" viewBox="0 0 129 129"><defs><style>.cls-1{fill:#fff;}.cls-1,.cls-2{stroke:#000;stroke-miterlimit:10;}.cls-2{fill:none;}</style></defs><g id="Layer_2" data-name="Layer 2"><g id="Layer_1-2" data-name="Layer 1"><path class="cls-1" d="M128.5,63.5v2c-13.7,13.53-27.44,27-41.08,40.61C80,113.48,72.8,121,65.5,128.5h-2Q42.68,107.43,21.83,86.36c-7-7-14.21-13.91-21.33-20.86v-2Q21.58,42.68,42.64,21.83c7-7,13.91-14.21,20.86-21.33h2C79.27,14.43,93,28.41,106.82,42.28,114,49.45,121.27,56.43,128.5,63.5ZM64.8,22.18,22.47,64.49l42,42,42.31-42.3Z"/><path class="cls-1" d="M19.5.5l16,16.78L16.84,35,.5,19.5v-3l16-16Z"/><path class="cls-1" d="M128.5,19.5l-16.78,16L94,16.84,109.5.5h3l16,16Z"/><path class="cls-1" d="M.5,109.5,17.05,93.72l18.07,18.36L19.5,128.5h-3l-16-16Z"/><path class="cls-1" d="M109.5,128.5l-16-16.78L112.16,94,128.5,109.5v3l-16,16Z"/><path class="cls-2" d="M64.8,22.18l42,42.05-42.31,42.3-42-42Zm0,24.71L47.42,64.05,64.61,81.13,82,64Z"/><path class="cls-1" d="M64.8,46.89,82,64,64.61,81.13,47.42,64.05Z"/></g></g></svg>