<svg xmlns="http://www.w3.org/2000/svg" viewBox="0 0 128 128"><defs><style>.cls-1{fill:#fff;}</style></defs><g id="Layer_2" data-name="Layer 2"><g id="Layer_1-2" data-name="Layer 1"><path class="cls-1" d="M128,63v2c-13.7,13.53-27.44,27-41.08,40.61C79.52,113,72.3,120.53,65,128H63Q42.18,106.93,21.33,85.86C14.31,78.82,7.12,72,0,65V63Q21.08,42.18,42.14,21.33C49.18,14.31,56.05,7.12,63,0h2c13.77,13.93,27.49,27.91,41.32,41.78C113.45,49,120.77,55.93,128,63ZM64.3,21.68,22,64l42,42,42.31-42.3Z"/><path d="M63,0c-7,7.12-13.82,14.31-20.86,21.33Q21.14,42.24,0,63V19L16.34,34.54,35,16.78,19,0Z"/><path d="M128,63c-7.23-7.07-14.55-14-21.68-21.22C92.49,27.91,78.77,13.93,65,0h44L93.46,16.34,111.22,35,128,19Z"/><path d="M0,65c7.12,7,14.31,13.82,21.33,20.86Q42.24,106.86,63,128H19l15.62-16.42L16.55,93.22,0,109Z"/><path d="M65,128c7.3-7.47,14.52-15,21.92-22.39C100.56,92,114.3,78.53,128,65v44L111.66,93.46,93,111.22,109,128Z"/><path class="cls-1" d="M19,0,35,16.78,16.34,34.54,0,19V16L16,0Z"/><path class="cls-1" d="M128,19,111.22,35,93.46,16.34,109,0h3l16,16Z"/><path class="cls-1" d="M0,109,16.55,93.22l18.07,18.36L19,128H16L0,112Z"/><path class="cls-1" d="M109,128,93,111.22l18.66-17.76L128,109v3l-16,16Z"/><path d="M16,0,0,16V0Z"/><path d="M128,16,112,0h16Z"/><path d="M0,112l16,16H0Z"/><path d="M112,128l16-16v16Z"/><path d="M64.3,21.68l42,42.05L64,106,22,64Zm0,24.71L46.92,63.55,64.11,80.63,81.47,63.46Z"/><path class="cls-1" d="M64.3,46.39,81.47,63.46,64.11,80.63,46.92,63.55Z"/></g></g></svg>