<svg xmlns="http://www.w3.org/2000/svg" viewBox="0 0 200 200"><defs><style>.cls-1{fill:#fff;}</style></defs><g id="Layer_2" data-name="Layer 2"><g id="Layer_1-2" data-name="Layer 1"><path d="M0,200V0H200V200Zm56-91.75c-4.71,6.07-10.39,10.14-12.59,18.54-3.2,12.27-10.4,23.5-15.9,35.16-1.67,3.55-3.11,7.16.38,10.41,3.19,3,6.64,1.85,10.05.21Q50.08,166.72,62.27,161c4.13-2,8.52-5.86,12.35-5.38,5.65.7,7.67-2.66,10.61-5.39a90.16,90.16,0,0,0,6.12-6.91c4.94,4.63,9.23,4,13.12.11,2.07,5.69,3.81,11.31,6.21,16.63.91,2,3.3,4.61,5.1,4.67a10,10,0,0,0,7.27-3.28c6.77-8.6,13.06-17.57,19.46-26.46,3.07-4.26,5.78-8.55,3.56-14.32-1.34-3.45-1.77-7.25-2.78-10.85-.84-3-.61-5.29,2-7.71,6.95-6.47,13.57-13.3,20.19-20.11a9.1,9.1,0,0,0,2.47-4.53c1.49-9.18,2.79-18.4,4-27.63.78-5.85,1.52-11.71,2-17.59.3-4-2-6.29-6-6.13-4.59.18-9.17.74-13.72,1.33C145.47,28.53,136.75,30,128,30.91c-4.39.47-8.12,1.44-11.32,4.83q-9.42,10-19.48,19.4a8.11,8.11,0,0,1-5.83,1.7c-3.68-.44-7.21-2.07-10.88-2.52-3.86-.48-7.68-2.73-11.77.39C59.09,62.05,49.27,69.13,39.33,76c-3,2.11-4.63,4.37-4.34,8.06.3,4,3.43,4.84,6.3,5.87,5.1,1.84,10.27,3.48,15.59,5.26C52.1,101,52.05,102.07,56,108.25Z"/><path class="cls-1" d="M56,108.25c-4-6.18-3.91-7.23.87-13-5.32-1.78-10.49-3.42-15.59-5.26-2.87-1-6-1.91-6.3-5.87-.29-3.69,1.29-5.95,4.34-8.06,9.94-6.88,19.76-14,29.36-21.3,4.09-3.12,7.91-.87,11.77-.39,3.67.45,7.2,2.08,10.88,2.52a8.11,8.11,0,0,0,5.83-1.7q10-9.41,19.48-19.4c3.2-3.39,6.93-4.36,11.32-4.83,8.78-.92,17.5-2.38,26.27-3.51,4.55-.59,9.13-1.15,13.72-1.33,4-.16,6.28,2.13,6,6.13-.44,5.88-1.18,11.74-2,17.59-1.25,9.23-2.55,18.45-4,27.63A9.1,9.1,0,0,1,165.47,82c-6.62,6.81-13.24,13.64-20.19,20.11-2.6,2.42-2.83,4.69-2,7.71,1,3.6,1.44,7.4,2.78,10.85,2.22,5.77-.49,10.06-3.56,14.32-6.4,8.89-12.69,17.86-19.46,26.46a10,10,0,0,1-7.27,3.28c-1.8-.06-4.19-2.66-5.1-4.67-2.4-5.32-4.14-10.94-6.21-16.63-3.89,3.89-8.18,4.52-13.12-.11a90.16,90.16,0,0,1-6.12,6.91c-2.94,2.73-5,6.09-10.61,5.39-3.83-.48-8.22,3.42-12.35,5.38Q50.1,166.74,38,172.57c-3.41,1.64-6.86,2.77-10.05-.21-3.49-3.25-2-6.86-.38-10.41,5.5-11.66,12.7-22.89,15.9-35.16C45.62,118.39,51.3,114.32,56,108.25ZM120.44,94C127.2,94,135,86.53,135,80c0-7.17-7.28-14.76-14.35-14.95-6.64-.17-14.5,7.43-14.63,14.14A14.75,14.75,0,0,0,120.44,94ZM54.37,135.92c-2.6,5.69-5,11.05-7.51,16.4l.78.87,16-7.19Z"/><path d="M120.44,94A14.75,14.75,0,0,1,106,79.18c.13-6.71,8-14.31,14.63-14.14C127.7,65.23,135,72.82,135,80,135,86.53,127.2,94,120.44,94Z"/><path d="M54.37,135.92,63.63,146l-16,7.19-.78-.87C49.32,147,51.77,141.61,54.37,135.92Z"/></g></g></svg>