<svg xmlns="http://www.w3.org/2000/svg" viewBox="0 0 149.21 149.16"><defs><style>.cls-1{fill:#fff;}.cls-1,.cls-2{stroke:#000;stroke-miterlimit:10;}.cls-2{fill:none;}</style></defs><g id="Layer_2" data-name="Layer 2"><g id="Layer_1-2" data-name="Layer 1"><path class="cls-1" d="M30.76,82.69c-4-6.17-3.91-7.23.86-13C26.3,67.86,21.13,66.22,16,64.39c-2.86-1-6-1.92-6.3-5.88-.29-3.68,1.3-5.95,4.35-8.06Q29,40.13,43.43,29.16c4.09-3.13,7.91-.88,11.77-.4,3.68.46,7.21,2.08,10.88,2.52a8.09,8.09,0,0,0,5.84-1.7q10-9.41,19.48-19.4c3.19-3.38,6.92-4.36,11.32-4.82C111.5,4.44,120.22,3,129,1.84c4.56-.58,9.14-1.15,13.72-1.33,4-.16,6.28,2.14,6,6.13-.43,5.88-1.17,11.75-2,17.59-1.24,9.23-2.55,18.45-4,27.64a9.16,9.16,0,0,1-2.46,4.53C133.59,63.2,127,70,120,76.5c-2.6,2.42-2.83,4.69-2,7.72,1,3.59,1.44,7.39,2.77,10.85,2.23,5.77-.49,10.05-3.56,14.31-6.39,8.89-12.69,17.86-19.46,26.46a10,10,0,0,1-7.27,3.28c-1.79-.06-4.19-2.65-5.1-4.67-2.4-5.32-4.13-10.94-6.2-16.63-3.9,3.89-8.19,4.52-13.12-.11A90.4,90.4,0,0,1,60,124.62c-2.94,2.73-5,6.09-10.61,5.39-3.84-.48-8.22,3.42-12.35,5.38Q24.84,141.18,12.69,147c-3.41,1.64-6.85,2.77-10-.21-3.48-3.25-2.05-6.86-.37-10.4,5.5-11.67,12.69-22.9,15.9-35.17C20.36,92.83,26.05,88.76,30.76,82.69ZM95.19,68.44c6.75,0,14.53-7.47,14.54-14,0-7.17-7.29-14.77-14.35-15-6.64-.17-14.5,7.43-14.63,14.14A14.74,14.74,0,0,0,95.19,68.44ZM29.12,110.37l-7.51,16.39.78.88,16-7.2Z"/><path class="cls-2" d="M95.19,68.44A14.74,14.74,0,0,1,80.75,53.62c.13-6.71,8-14.31,14.63-14.14,7.06.19,14.35,7.79,14.35,15C109.72,61,101.94,68.47,95.19,68.44Z"/><path class="cls-2" d="M29.12,110.37l9.25,10.07-16,7.2-.78-.88Z"/></g></g></svg>