<svg xmlns="http://www.w3.org/2000/svg" width="500" height="500" viewBox="0 0 500 500">
  <g id="Group_32" data-name="Group 32" transform="translate(-2374 1583)">
    <rect id="Rectangle_14" data-name="Rectangle 14" width="500" height="500" transform="translate(2374 -1583)" fill="rgba(0,0,0,0)"/>
    <path id="Path_33" data-name="Path 33" d="M522.424,688.645c-12.664-19.734-12.495-23.117,2.757-41.685-17-5.7-33.507-10.942-49.794-16.8-9.169-3.3-19.156-6.108-20.143-18.76-.92-11.779,4.14-19,13.894-25.756q47.625-32.97,93.783-68.036c13.067-9.984,25.255-2.8,37.6-1.265C612.255,517.8,623.532,523,635.27,524.4c6.025.719,14.351-1.412,18.651-5.441q32.031-30.027,62.234-61.975c10.2-10.811,22.114-13.936,36.159-15.405,28.053-2.939,55.918-7.62,83.9-11.226,14.565-1.879,29.2-3.687,43.845-4.265,12.677-.5,20.057,6.833,19.108,19.6-1.4,18.785-3.757,37.519-6.275,56.2-3.968,29.472-8.134,58.927-12.907,88.278-.837,5.156-4.153,10.648-7.875,14.475-21.156,21.75-42.292,43.57-64.506,64.221-8.319,7.738-9.041,15.006-6.348,24.654,3.2,11.495,4.607,23.616,8.865,34.667,7.1,18.434-1.569,32.127-11.364,45.74-20.437,28.4-40.548,57.062-62.177,84.527-4.827,6.131-15.463,10.76-23.226,10.482-5.744-.208-13.4-8.482-16.3-14.919-7.667-17-13.214-34.957-19.821-53.132-12.453,12.437-26.146,14.447-41.925-.339-6.84,7.827-12.581,15.606-19.545,22.066-9.393,8.712-15.846,19.447-33.9,17.21-12.255-1.518-26.264,10.926-39.452,17.2q-38.884,18.5-77.716,37.114c-10.9,5.246-21.9,8.859-32.1-.665-11.137-10.4-6.553-21.916-1.208-33.248,17.584-37.273,40.558-73.15,50.8-112.347C489.205,721.043,507.371,708.044,522.424,688.645Zm205.829-45.532c21.587.09,46.449-23.855,46.462-44.743.016-22.9-23.284-47.18-45.848-47.771-21.207-.556-46.327,23.721-46.746,45.177C681.626,621.143,702.939,643.014,728.254,643.113ZM517.175,777.054c-8.326,18.181-16.153,35.277-23.98,52.372l2.482,2.8c17.21-7.747,34.421-15.5,51.065-22.993C536.491,798.076,527.242,788.009,517.175,777.054Z" transform="translate(1961.244 -1996.058)" fill="#fff"/>
  </g>
</svg>
