<svg xmlns="http://www.w3.org/2000/svg" viewBox="0 0 200 200"><defs><style>.cls-1{fill:#fff;}</style></defs><g id="Layer_2" data-name="Layer 2"><g id="Layer_1-2" data-name="Layer 1"><path d="M200,200H0V0H200ZM48.89,78c-8.16,0-16.34-.22-24.48.13-2.49.11-6,1.14-7.1,2.93-1.88,3.09,1.23,5.54,3.58,7.27,10.79,7.94,21.6,15.87,32.62,23.49s11.2,7.55,7,20.21c-4.42,13.28-8.77,26.59-12.9,40-.6,1.95-.41,5.77.58,6.22,1.88.88,4.6,0,7-.26.57-.07,1.06-.74,1.59-1.12,13.24-9.57,26.51-19.1,39.68-28.76,2.24-1.65,4.19-2.3,6.53-.56,6.56,4.88,13.08,9.8,19.68,14.62,7.12,5.21,14.16,10.55,21.57,15.32,2,1.29,5.21.7,7.87,1,0-2.32.47-4.74,0-7-.93-4.28-2.33-8.47-3.66-12.67-3.83-12.1-7.8-24.17-11.46-36.32a5.13,5.13,0,0,1,1.51-4.46c13.39-9.91,27-19.58,40.4-29.44,2.48-1.83,5.77-4.31,3.84-7.65-1-1.77-4.7-2.77-7.2-2.81-16.32-.24-32.65-.2-49,0-3.36,0-4.83-.9-5.71-4.33C119.26,67.74,117,62,115,56.09c-3.55-10.47-7-21-10.81-31.37-.58-1.58-3.06-3.57-4.5-3.44-1.64.14-3.24,2.31-4.57,3.85-.69.79-.74,2.12-1.09,3.2C89,43.66,83.91,59,79.08,74.33c-.92,2.94-2.27,3.78-5.21,3.72C65.55,77.86,57.22,78,48.89,78Z"/><path class="cls-1" d="M48.89,78c8.33,0,16.66-.12,25,.07,2.94.06,4.29-.78,5.21-3.72C83.91,59,89,43.66,94,28.33c.35-1.08.4-2.41,1.09-3.2,1.33-1.54,2.93-3.71,4.57-3.85,1.44-.13,3.92,1.86,4.5,3.44C108,35.1,111.42,45.62,115,56.09c2,5.86,4.29,11.65,5.82,17.63.88,3.43,2.35,4.36,5.71,4.33,16.32-.15,32.65-.19,49,0,2.5,0,6.17,1,7.2,2.81,1.93,3.34-1.36,5.82-3.84,7.65-13.43,9.86-27,19.53-40.4,29.44a5.13,5.13,0,0,0-1.51,4.46c3.66,12.15,7.63,24.22,11.46,36.32,1.33,4.2,2.73,8.39,3.66,12.67.49,2.21,0,4.63,0,7-2.66-.27-5.87.32-7.87-1-7.41-4.77-14.45-10.11-21.57-15.32-6.6-4.82-13.12-9.74-19.68-14.62-2.34-1.74-4.29-1.09-6.53.56C83.24,157.71,70,167.24,56.73,176.81c-.53.38-1,1.05-1.59,1.12-2.36.29-5.08,1.14-7,.26-1-.45-1.18-4.27-.58-6.22,4.13-13.37,8.48-26.68,12.9-40,4.21-12.66,4.17-12.48-7-20.21S31.68,96.25,20.89,88.31c-2.35-1.73-5.46-4.18-3.58-7.27,1.09-1.79,4.61-2.82,7.1-2.93C32.55,77.76,40.73,78,48.89,78Z"/></g></g></svg>