<svg xmlns="http://www.w3.org/2000/svg" viewBox="0 0 167.52 158.31"><defs><style>.cls-1{fill:#fff;stroke:#000;stroke-miterlimit:10;}</style></defs><g id="Layer_2" data-name="Layer 2"><g id="Layer_1-2" data-name="Layer 1"><path class="cls-1" d="M32.66,57.21c8.33,0,16.66-.12,25,.06,2.94.07,4.29-.77,5.21-3.71,4.83-15.38,9.92-30.67,14.92-46,.35-1.08.4-2.41,1.09-3.2C80.19,2.82,81.79.65,83.43.51,84.86.38,87.35,2.37,87.93,4c3.82,10.38,7.26,20.9,10.81,31.37,2,5.86,4.29,11.65,5.82,17.63.88,3.43,2.35,4.36,5.71,4.33,16.32-.15,32.65-.19,49,0,2.49,0,6.17,1,7.19,2.81,1.94,3.34-1.35,5.82-3.84,7.64-13.42,9.87-27,19.54-40.39,29.45a5.12,5.12,0,0,0-1.51,4.45c3.66,12.16,7.63,24.23,11.46,36.33,1.33,4.19,2.72,8.38,3.66,12.67.49,2.21,0,4.63,0,6.95-2.66-.27-5.87.32-7.88-1-7.4-4.77-14.44-10.11-21.56-15.32-6.6-4.82-13.12-9.75-19.69-14.62-2.33-1.74-4.28-1.09-6.52.56C67,136.94,53.74,146.46,40.5,156c-.53.38-1,1.05-1.59,1.12-2.36.29-5.08,1.13-7,.26-1-.45-1.17-4.27-.57-6.22,4.12-13.37,8.48-26.68,12.9-40,4.21-12.66,4.17-12.48-7-20.21S15.45,75.48,4.66,67.54C2.31,65.81-.8,63.36,1.08,60.27c1.09-1.79,4.61-2.82,7.1-2.93C16.32,57,24.5,57.21,32.66,57.21Z"/></g></g></svg>