<svg xmlns="http://www.w3.org/2000/svg" viewBox="0 0 200 200"><defs><style>.cls-1{fill:#fff;}</style></defs><g id="Layer_2" data-name="Layer 2"><g id="Layer_1-2" data-name="Layer 1"><path d="M200,200H0V0H200Zm-81-5.27h40.78q-8.41-73.6-16.74-146.51h-84Q50.72,121.68,42.4,194.77H83c0-10.71,0-21.17,0-31.63S90.76,145,101.42,145c10.2,0,17.57,7.46,17.58,17.83S119,183.81,119,194.73ZM42.22,38.63H159.61V7.26H137.86V24.74H120V7.33H81.89V24.68H64.81V7.22H42.22Z"/><path class="cls-1" d="M119,194.73c0-10.92,0-21.4,0-31.89S111.62,145,101.42,145C90.76,145,83,152.65,83,163.14s0,20.92,0,31.63H42.4q8.33-73.21,16.67-146.55h84q8.34,73,16.74,146.51Z"/><path class="cls-1" d="M42.22,38.63V7.22H64.81V24.68H81.89V7.33H120V24.74h17.9V7.26h21.75V38.63Z"/></g></g></svg>