<svg xmlns="http://www.w3.org/2000/svg" xmlns:xlink="http://www.w3.org/1999/xlink" viewBox="0 0 200 200"><defs><style>.cls-1{fill:none;}.cls-2{isolation:isolate;}.cls-3{fill:#a8a8a8;}.cls-4{clip-path:url(#clip-path);}.cls-5{fill:#858585;}.cls-6{clip-path:url(#clip-path-2);}.cls-7{clip-path:url(#clip-path-3);}.cls-8{fill:#b8b8b8;}.cls-9{fill:#b3b3b3;}.cls-10{fill:#adadad;}.cls-11{fill:#a3a3a3;}.cls-12{fill:#9e9e9e;}.cls-13{fill:#999;}.cls-14{fill:#949494;}.cls-15{fill:#8f8f8f;}.cls-16{fill:#8a8a8a;}.cls-17{clip-path:url(#clip-path-4);}.cls-18{fill:#c2c2c2;}.cls-19{fill:#bdbdbd;}.cls-20{clip-path:url(#clip-path-5);}.cls-21{fill:#c7c7c7;}.cls-22{fill:#ccc;}.cls-23{fill:#d1d1d1;}.cls-24{fill:#d6d6d6;}.cls-25{fill:#dbdbdb;}.cls-26{fill:#e0e0e0;}.cls-27{fill:#e6e6e6;}.cls-28{fill:#ebebeb;}.cls-29{fill:#f0f0f0;}.cls-30{fill:#f5f5f5;}.cls-31{clip-path:url(#clip-path-6);}.cls-32{fill:#cfcfcf;}.cls-33{clip-path:url(#clip-path-7);}.cls-34{clip-path:url(#clip-path-8);}.cls-35{clip-path:url(#clip-path-9);}.cls-36{clip-path:url(#clip-path-10);}.cls-37{clip-path:url(#clip-path-11);}.cls-38{clip-path:url(#clip-path-12);}.cls-39{clip-path:url(#clip-path-13);}.cls-40{clip-path:url(#clip-path-14);}.cls-41{clip-path:url(#clip-path-15);}.cls-42{clip-path:url(#clip-path-16);}.cls-43{clip-path:url(#clip-path-17);}.cls-44{clip-path:url(#clip-path-18);}</style><clipPath id="clip-path"><path class="cls-1" d="M79,190.77l4,4H42.4l4.48-4Z"/></clipPath><clipPath id="clip-path-2"><path class="cls-1" d="M155.33,190.73l4.48,4H119l4-4Z"/></clipPath><clipPath id="clip-path-3"><path class="cls-1" d="M123,190.73l-4,4V162.84c0-10.49-7.38-17.84-17.58-17.84C90.76,145,83,152.65,83,163.14v31.63l-4-4V163.14C79,150.41,88.56,141,101.42,141c12.43,0,21.61,9.13,21.58,21.84Z"/></clipPath><clipPath id="clip-path-4"><path class="cls-1" d="M46.88,190.77l-4.48,4q4.17-36.6,8.33-73.24t8.34-73.31l3.57,4c-2.37,20.9-5.15,45.34-7.93,69.76Z"/></clipPath><clipPath id="clip-path-5"><path class="cls-1" d="M62.64,52.22l-3.57-4h84c-.14.16-2.82,3.17-3.57,4Z"/></clipPath><clipPath id="clip-path-6"><path class="cls-1" d="M139.5,52.22l3.57-4q4.17,36.51,8.35,73.13t8.39,73.38l-4.48-4c-2.29-20-5.09-44.51-7.88-68.93S141.88,73,139.5,52.22Z"/></clipPath><clipPath id="clip-path-7"><path class="cls-1" d="M155.65,34.63l4,4H42.22l4-4Z"/></clipPath><clipPath id="clip-path-8"><path class="cls-1" d="M116,28.74l4-4h17.9c.16.16,3.16,3.17,4,4Z"/></clipPath><clipPath id="clip-path-9"><path class="cls-1" d="M60.81,28.68l4-4H81.89l4,4Z"/></clipPath><clipPath id="clip-path-10"><path class="cls-1" d="M85.89,28.68l-4-4V7.33c.16.16,3.17,3.16,4,4Z"/></clipPath><clipPath id="clip-path-11"><path class="cls-1" d="M85.89,11.33l-4-4H120c-.16.16-3.17,3.16-4,4Z"/></clipPath><clipPath id="clip-path-12"><path class="cls-1" d="M116,11.33l4-4V24.74l-4,4Z"/></clipPath><clipPath id="clip-path-13"><path class="cls-1" d="M155.65,11.26l4-4V38.63c-.16-.16-3.16-3.17-4-4Z"/></clipPath><clipPath id="clip-path-14"><path class="cls-1" d="M141.9,11.26l-4-4h21.75l-4,4Z"/></clipPath><clipPath id="clip-path-15"><path class="cls-1" d="M141.9,28.74l-4-4V7.26l4,4Z"/></clipPath><clipPath id="clip-path-16"><path class="cls-1" d="M46.22,34.63l-4,4V7.22l4,4Z"/></clipPath><clipPath id="clip-path-17"><path class="cls-1" d="M60.81,11.22l4-4V24.68l-4,4Z"/></clipPath><clipPath id="clip-path-18"><path class="cls-1" d="M46.22,11.22l-4-4H64.81l-4,4Z"/></clipPath></defs><g id="Layer_2" data-name="Layer 2"><g id="Layer_1-2" data-name="Layer 1"><g id="Layer_2-2" data-name="Layer 2"><g id="Layer_1-2-2" data-name="Layer 1-2"><path d="M200,200H0V0H200Zm-81-5.27h40.78Q151.36,121.13,143,48.22H59Q50.72,121.68,42.4,194.77H83V163.14C83,152.68,90.76,145,101.42,145c10.2,0,17.57,7.46,17.58,17.83S119,183.81,119,194.73ZM42.22,38.63H159.61V7.26H137.86V24.74H120V7.33H81.89V24.68H64.81V7.22H42.22Z"/><g class="cls-2"><rect class="cls-3" x="101.07" y="6.22" height="84.01" transform="translate(-9.59 65.4) rotate(-34.33)"/><g class="cls-2"><g class="cls-4"><g class="cls-2"><path class="cls-5" d="M46.88,190.77H79l4,4H42.4l4.48-4"/></g></g></g><g class="cls-2"><g class="cls-6"><g class="cls-2"><path class="cls-5" d="M123,190.73h32.33l4.48,4H119l4-4"/></g></g></g><g class="cls-2"><g class="cls-7"><g class="cls-2"><path class="cls-8" d="M123,190.73l-4,4V162.84c0-10.49-7.38-17.84-17.58-17.84C90.76,145,83,152.65,83,163.14v31.63l-4-4V163.14C79,150.41,88.56,141,101.42,141c12.43,0,21.61,9.13,21.58,21.84v27.89"/><path class="cls-8" d="M79,190.77V163.14C79,150.41,88.56,141,101.42,141c12.43,0,21.61,9.13,21.58,21.84v27.89l-3.9,3.9V169.52c0-5,0-5-.11-7.3-.29-10.15-7.57-17.22-17.57-17.22C90.76,145,83,152.65,83,163.14v31.63l-4-4"/><path class="cls-9" d="M79,190.77V163.14C79,150.41,88.56,141,101.42,141c12.43,0,21.61,9.13,21.58,21.84v27.89l-3.6,3.59V175.24c0-11.76,0-11.76-.52-14.64-1-9.28-8-15.6-17.46-15.6C90.76,145,83,152.65,83,163.14v31.63l-4-4"/><path class="cls-10" d="M79,190.77V163.14C79,150.41,88.56,141,101.42,141c12.43,0,21.61,9.13,21.58,21.84v27.89l-3.18,3.18v-24.4c0-6.37,0-6.37-1.13-10.33-1.51-8.49-8.29-14.18-17.26-14.18C90.76,145,83,152.65,83,163.14v31.63l-4-4"/><path class="cls-3" d="M79,190.77V163.14C79,150.41,88.56,141,101.42,141c12.43,0,21.61,9.13,21.58,21.84v27.89l-2.71,2.7V165.7c-.09-3-.09-3-1.91-7.9-2-7.73-8.49-12.8-17-12.8C90.76,145,83,152.65,83,163.14v31.63l-4-4"/><path class="cls-11" d="M79,190.77V163.14C79,150.41,88.56,141,101.42,141c12.43,0,21.61,9.13,21.58,21.84v27.89l-2.2,2.2V165.7c-.1-3.4-.1-3.4-2.82-9.28-2.36-6.94-8.6-11.42-16.56-11.42C90.76,145,83,152.65,83,163.14v31.63l-4-4"/><path class="cls-12" d="M79,190.77V163.14C79,150.41,88.56,141,101.42,141c12.43,0,21.61,9.13,21.58,21.84v27.89l-1.68,1.67V167.6c0-5.82,0-5.82-3.87-12.54-2.68-6.17-8.61-10.06-16-10.06C90.76,145,83,152.65,83,163.14v31.63l-4-4"/><path class="cls-13" d="M79,190.77V163.14C79,150.41,88.56,141,101.42,141c12.43,0,21.61,9.13,21.58,21.84v27.89l-1.16,1.15V169.49c0-8.61,0-8.61-5.08-15.83-2.92-5.35-8.5-8.66-15.34-8.66C90.76,145,83,152.65,83,163.14v31.63l-4-4"/><path class="cls-14" d="M79,190.77V163.14C79,150.41,88.56,141,101.42,141c12.43,0,21.61,9.13,21.58,21.84v27.89l-.66.66h0V173.22c0-13.52,0-13.52-6.46-21A17.07,17.07,0,0,0,101.42,145C90.76,145,83,152.65,83,163.14v31.63l-4-4"/><path class="cls-15" d="M79,190.77V163.14C79,150.41,88.56,141,101.42,141c12.43,0,21.61,9.13,21.58,21.84v27.89l-.21.21h0V175c0-16.72,0-16.72-8.09-24.32A17.27,17.27,0,0,0,101.42,145C90.76,145,83,152.65,83,163.14v31.63l-4-4"/><path class="cls-16" d="M79,190.77V163.14C79,150.41,88.56,141,101.42,141c12,0,20.92,8.47,21.54,20.44l-.17-.82c-1.45-5.68-4.94-8.15-9.77-11.57a17.68,17.68,0,0,0-11.6-4.05c-10.09,0-17.58,6.85-18.36,16.48h0a40.59,40.59,0,0,0-.21,4.52v26.71h0v1.92L79,190.77"/><path class="cls-5" d="M79,190.77V163.14C79,150.41,88.56,141,101.42,141c10.79,0,19.12,6.87,21.12,17l-.23-.65c-1.85-4.32-5-7-12.09-10.22a18.44,18.44,0,0,0-8.8-2.13c-8.64,0-15.38,5-17.62,12.51h0A20.2,20.2,0,0,0,82.2,166v26.17h0V194c-1-1-2.63-2.63-3.21-3.21"/></g></g></g><g class="cls-2"><g class="cls-17"><g class="cls-2"><path class="cls-18" d="M46.88,190.77l-4.48,4q4.17-36.6,8.33-73.24t8.34-73.31l3.57,4c-2.37,20.9-5.15,45.34-7.93,69.76l-7.83,68.79"/><path class="cls-18" d="M62.64,52.22c-2.37,20.9-5.15,45.34-7.93,69.76l-7.83,68.79-4.44,4h0C43.83,182.43,57.78,59.86,59.1,48.26l3.54,4"/><path class="cls-19" d="M62.64,52.22c-2.37,20.9-5.15,45.34-7.93,69.76l-7.83,68.79-4.14,3.7h0q8.3-73,16.6-145.94l3.3,3.69"/><path class="cls-8" d="M62.64,52.22c-2.37,20.9-5.15,45.34-7.93,69.76l-7.83,68.79-3.71,3.31.35-3.08Q51.6,119.95,59.68,48.91l3,3.31"/><path class="cls-9" d="M62.64,52.22c-2.37,20.9-5.15,45.34-7.93,69.76l-7.83,68.79-3.21,2.87.34-3q8-70.62,16.07-141.26l2.56,2.87"/><path class="cls-10" d="M62.64,52.22c-2.37,20.9-5.15,45.34-7.93,69.76l-7.83,68.79-2.68,2.39c.1-.88.23-2.07.33-2.95q8-70.2,16-140.38l2.14,2.39"/><path class="cls-3" d="M62.64,52.22c-2.37,20.9-5.15,45.34-7.93,69.76l-7.83,68.79-2.14,1.91.33-2.89Q53,120,60.93,50.32l1.71,1.9"/><path class="cls-11" d="M62.64,52.22c-2.37,20.9-5.15,45.34-7.93,69.76l-7.83,68.79-1.6,1.43.33-2.83Q53.49,120.09,61.36,50.8l1.28,1.42"/><path class="cls-12" d="M62.64,52.22c-2.37,20.9-5.15,45.34-7.93,69.76l-7.83,68.79-1.08,1c.1-.83.22-1.93.32-2.76Q54,120.12,61.78,51.26l.86,1"/><path class="cls-13" d="M62.64,52.22c-2.37,20.9-5.15,45.34-7.93,69.76l-7.83,68.79-.59.53.31-2.7C46.73,187.42,62,53.38,62.17,51.69l.47.53"/><path class="cls-14" d="M62.64,52.22c-2.37,20.9-5.15,45.34-7.93,69.76l-7.83,68.79-.17.16q7.9-69.44,15.79-138.86l.14.15"/></g></g></g><g class="cls-2"><g class="cls-20"><g class="cls-2"><path class="cls-8" d="M139.5,52.22H62.64l-.11-.12h77.08l-.11.12"/><path class="cls-19" d="M139.61,52.1H62.53l-.2-.22h77.48l-.2.22"/><path class="cls-18" d="M139.81,51.88H62.33l-.24-.27h78l-.24.27"/><path class="cls-21" d="M140.05,51.61h-78l-.28-.31h78.52l-.28.31"/><path class="cls-22" d="M140.33,51.3H61.81l-.3-.34h79.12l-.3.34"/><path class="cls-23" d="M140.63,51H61.51l-.33-.37H141l-.33.37"/><path class="cls-24" d="M141,50.59H61.18l-.35-.39h80.48l-.35.39"/><path class="cls-25" d="M141.31,50.2H60.83l-.37-.42h81.22l-.37.42"/><path class="cls-26" d="M141.68,49.78H60.46l-.39-.43h82l-.39.43"/><path class="cls-27" d="M142.07,49.35h-82l-.38-.43h82.76l-.38.43"/><path class="cls-28" d="M142.45,48.92H59.69l-.36-.4h83.48l-.36.4"/><path class="cls-29" d="M142.81,48.52H59.33l-.25-.28h84l-.25.28"/><path class="cls-30" d="M143.06,48.24h-84v0h84v0"/></g></g></g><g class="cls-2"><g class="cls-31"><g class="cls-2"><path class="cls-15" d="M139.5,52.22l3.57-4q4.17,36.51,8.35,73.13t8.39,73.38l-4.48-4c-2.29-20-5.09-44.51-7.88-68.93S141.88,73,139.5,52.22"/><path class="cls-15" d="M155.33,190.73c-2.29-20-5.09-44.51-7.88-68.93S141.88,73,139.5,52.22l3.5-3.91.36,3.16C145.29,68,145.29,68,159.72,194.64l-4.39-3.91"/><path class="cls-16" d="M155.33,190.73c-2.29-20-5.09-44.51-7.88-68.93S141.88,73,139.5,52.22l3.09-3.45.35,3.11c6.89,60.44,12.37,108.32,16.26,142.3l-3.87-3.45"/><path class="cls-5" d="M155.33,190.73c-2.29-20-5.09-44.51-7.88-68.93S141.88,73,139.5,52.22l2.34-2.61c.1.9.24,2.11.34,3l16.08,140.71-2.93-2.61"/></g></g></g><path class="cls-32" d="M139.5,52.22c2.38,20.79,5.16,45.16,7.95,69.58s5.59,48.88,7.88,68.93H123V162.84c0-12.71-9.15-21.86-21.58-21.84C88.56,141,79,150.41,79,163.14v27.63H46.88L54.71,122c2.78-24.42,5.56-48.86,7.93-69.76Z"/></g><g class="cls-2"><rect class="cls-3" x="120" y="24.74" width="17.9" transform="translate(40.69 121.96) rotate(-58.63)"/><rect class="cls-3" x="64.81" y="24.68" width="17.08" transform="translate(14.09 74.46) rotate(-58.63)"/><rect class="cls-3" x="100.94" y="-11.72" height="38.11" transform="translate(10.94 53.62) rotate(-31.37)"/><rect class="cls-3" x="148.77" y="-3.62" height="21.75" transform="translate(17.97 78.52) rotate(-31.37)"/><rect class="cls-3" x="53.51" y="-4.07" height="22.59" transform="translate(4.07 28.92) rotate(-31.37)"/><g class="cls-2"><g class="cls-33"><g class="cls-2"><path class="cls-5" d="M46.22,34.63H155.65l4,4H42.22l4-4"/></g></g></g><g class="cls-2"><g class="cls-34"><g class="cls-2"><path class="cls-8" d="M141.9,28.74H116l.12-.12h25.66l.12.12"/><path class="cls-19" d="M141.78,28.62H116.12l.22-.22h25.21l.23.22"/><path class="cls-18" d="M141.55,28.4H116.34l.27-.27h24.67l.27.27"/><path class="cls-21" d="M141.28,28.13H116.61l.31-.31H141l.3.31"/><path class="cls-22" d="M141,27.82H116.92l.34-.34h23.38l.34.34"/><path class="cls-23" d="M140.64,27.48H117.26l.37-.37h22.64l.37.37"/><path class="cls-24" d="M140.27,27.11H117.63l.39-.39h21.85l.4.39"/><path class="cls-25" d="M139.87,26.72H118l.42-.42h21l.42.42"/><path class="cls-26" d="M139.45,26.3h-21l.43-.43H139l.43.43"/><path class="cls-27" d="M139,25.87H118.87l.43-.43h19.29l.43.43"/><path class="cls-28" d="M138.59,25.44H119.3l.4-.4h18.5l.39.4"/><path class="cls-29" d="M138.2,25H119.7l.28-.28h17.94l.28.28"/><path class="cls-30" d="M137.92,24.76H120l0,0h17.9l0,0"/></g></g></g><g class="cls-2"><g class="cls-35"><g class="cls-2"><path class="cls-8" d="M85.89,28.68H60.81l.12-.12H85.77l.12.12"/><path class="cls-19" d="M85.77,28.56H60.93l.23-.23H85.54l.23.23"/><path class="cls-18" d="M85.54,28.33H61.16l.26-.27H85.28l.26.27"/><path class="cls-21" d="M85.28,28.06H61.42l.31-.3H85l.31.3"/><path class="cls-22" d="M85,27.76H61.73l.34-.34H84.63l.34.34"/><path class="cls-23" d="M84.63,27.42H62.07l.37-.37H84.26l.37.37"/><path class="cls-24" d="M84.26,27.05H62.44l.4-.4h21l.4.4"/><path class="cls-25" d="M83.86,26.65h-21l.41-.41h20.2l.41.41"/><path class="cls-26" d="M83.45,26.24H63.25l.44-.44H83l.44.44"/><path class="cls-27" d="M83,25.8H63.69l.43-.43H82.58l.43.43"/><path class="cls-28" d="M82.58,25.37H64.12l.39-.39H82.19l.39.39"/><path class="cls-29" d="M82.19,25H64.51l.28-.28H81.91l.28.28"/><path class="cls-30" d="M81.91,24.7H64.79l0,0H81.89l0,0"/></g></g></g><g class="cls-2"><g class="cls-36"><g class="cls-2"><path class="cls-15" d="M85.89,11.33V28.68l-.21-.21V11.12l.21.21"/><path class="cls-14" d="M85.68,11.12V28.47L85.23,28V10.67l.45.45"/><path class="cls-13" d="M85.23,10.67V28l-.5-.5V10.17l.5.5"/><path class="cls-12" d="M84.73,10.17V27.52L84.21,27V9.65l.52.52"/><path class="cls-11" d="M84.21,9.65V27l-.52-.52V9.13l.52.52"/><path class="cls-3" d="M83.69,9.13V26.48L83.18,26V8.62l.51.51"/><path class="cls-10" d="M83.18,8.62V26l-.47-.47V8.15l.47.47"/><path class="cls-9" d="M82.71,8.15V25.5l-.41-.41V7.73l.41.42"/><path class="cls-8" d="M82.3,7.73V25.09L82,24.78V7.43l.31.3"/><path class="cls-19" d="M82,7.43V24.78l-.1-.1V7.33l.1.1"/></g></g></g><g class="cls-2"><g class="cls-37"><g class="cls-2"><path class="cls-8" d="M116,11.33H85.89l-.12-.12h30.35l-.12.12"/><path class="cls-19" d="M116.12,11.21H85.77L85.54,11h30.8l-.22.23"/><path class="cls-18" d="M116.34,11H85.54l-.26-.27h31.33l-.27.27"/><path class="cls-21" d="M116.61,10.71H85.28l-.31-.3h32l-.31.3"/><path class="cls-22" d="M116.92,10.41H85l-.34-.34h32.63l-.34.34"/><path class="cls-23" d="M117.26,10.07H84.63l-.37-.37h33.37l-.37.37"/><path class="cls-24" d="M117.63,9.7H84.26l-.4-.4H118l-.39.4"/><path class="cls-25" d="M118,9.3H83.86l-.41-.42h35L118,9.3"/><path class="cls-26" d="M118.44,8.88h-35L83,8.45h35.86l-.43.43"/><path class="cls-27" d="M118.87,8.45H83L82.58,8H119.3l-.43.43"/><path class="cls-28" d="M119.3,8H82.58l-.39-.39H119.7l-.4.39"/><path class="cls-29" d="M119.7,7.63H82.19l-.28-.28H120l-.28.28"/><path class="cls-30" d="M120,7.35H81.91l0,0H120l0,0"/></g></g></g><g class="cls-2"><g class="cls-38"><g class="cls-2"><path class="cls-5" d="M116,28.74V11.33l3.21-3.21V25.53L116,28.74"/><path class="cls-16" d="M119.21,25.53V8.12l.64-.65V24.89l-.64.64"/><path class="cls-15" d="M119.85,24.89V7.47l.15-.14V24.74l-.15.15"/></g></g></g><g class="cls-2"><g class="cls-39"><g class="cls-2"><path class="cls-5" d="M155.65,34.63V11.26l3.21-3.21V37.84l-3.21-3.21"/><path class="cls-16" d="M158.86,37.84V8.05l.65-.65V38.49l-.65-.65"/><path class="cls-15" d="M159.51,38.49V7.4l.14-.14V38.63l-.14-.14"/></g></g></g><g class="cls-2"><g class="cls-40"><g class="cls-2"><path class="cls-8" d="M155.65,11.26H141.9l-.12-.12h14l-.12.12"/><path class="cls-19" d="M155.77,11.14h-14l-.23-.23H156l-.23.23"/><path class="cls-18" d="M156,10.91H141.55l-.27-.27h15l-.27.27"/><path class="cls-21" d="M156.27,10.64h-15l-.3-.31h15.59l-.3.31"/><path class="cls-22" d="M156.57,10.33H141l-.34-.34h16.27l-.34.34"/><path class="cls-23" d="M156.91,10H140.64l-.37-.37h17l-.37.37"/><path class="cls-24" d="M157.28,9.62h-17l-.4-.39h17.81l-.4.39"/><path class="cls-25" d="M157.68,9.23H139.87l-.42-.42h18.64l-.41.42"/><path class="cls-26" d="M158.09,8.81H139.45L139,8.38h19.51l-.44.43"/><path class="cls-27" d="M158.53,8.38H139L138.59,8H159l-.43.43"/><path class="cls-28" d="M159,8H138.59l-.39-.4h21.15L159,8"/><path class="cls-29" d="M159.35,7.55H138.2l-.28-.27h21.71l-.28.27"/><path class="cls-30" d="M159.63,7.28H137.92l0,0h21.75l0,0"/></g></g></g><g class="cls-2"><g class="cls-41"><g class="cls-2"><path class="cls-15" d="M141.9,11.26V28.74l-.21-.21V11.05l.21.21"/><path class="cls-14" d="M141.69,11.05V28.53l-.45-.45V10.6l.45.45"/><path class="cls-13" d="M141.24,10.6V28.08l-.5-.49V10.1l.5.5"/><path class="cls-12" d="M140.74,10.1V27.59l-.52-.52V9.58l.52.52"/><path class="cls-11" d="M140.22,9.58V27.07l-.52-.53V9.06l.52.52"/><path class="cls-3" d="M139.7,9.06V26.54l-.51-.51V8.55l.51.51"/><path class="cls-10" d="M139.19,8.55V26l-.47-.47V8.07l.47.48"/><path class="cls-9" d="M138.72,8.07V25.56l-.42-.41V7.66l.42.41"/><path class="cls-8" d="M138.3,7.66V25.15l-.3-.31V7.35l.3.31"/><path class="cls-19" d="M138,7.35V24.84l-.1-.1V7.26l.1.09"/></g></g></g><g class="cls-2"><g class="cls-42"><g class="cls-2"><path class="cls-15" d="M46.22,11.22V34.63l-.21.21V11l.21.21"/><path class="cls-14" d="M46,11V34.84l-.45.45V10.56L46,11"/><path class="cls-13" d="M45.56,10.56V35.29l-.5.5V10.06l.5.5"/><path class="cls-12" d="M45.06,10.06V35.79l-.52.52V9.54l.52.52"/><path class="cls-11" d="M44.54,9.54V36.31l-.52.52V9l.52.52"/><path class="cls-3" d="M44,9V36.83l-.51.51V8.51L44,9"/><path class="cls-10" d="M43.51,8.51V37.34l-.47.47V8l.47.47"/><path class="cls-9" d="M43,8V37.81l-.42.41V7.63L43,8"/><path class="cls-8" d="M42.62,7.63V38.22l-.3.31V7.32l.3.31"/><path class="cls-19" d="M42.32,7.32V38.53l-.1.1V7.22l.1.1"/></g></g></g><g class="cls-2"><g class="cls-43"><g class="cls-2"><path class="cls-5" d="M60.81,28.68V11.22L64,8V25.47l-3.21,3.21"/><path class="cls-16" d="M64,25.47V8l.64-.65V24.82l-.64.65"/><path class="cls-15" d="M64.66,24.82V7.36l.15-.14V24.68l-.15.14"/></g></g></g><path class="cls-32" d="M60.81,11.22V28.68H85.89V11.33H116V28.74h25.9V11.26h13.75V34.63H46.22V11.22Z"/><g class="cls-2"><g class="cls-44"><g class="cls-2"><path class="cls-8" d="M60.81,11.22H46.22l-.12-.12H60.93l-.12.12"/><path class="cls-19" d="M60.93,11.1H46.1l-.23-.23H61.16l-.23.23"/><path class="cls-18" d="M61.16,10.87H45.87l-.27-.27H61.42l-.26.27"/><path class="cls-21" d="M61.42,10.6H45.6l-.3-.3H61.73l-.31.3"/><path class="cls-22" d="M61.73,10.3H45.3L45,10H62.07l-.34.34"/><path class="cls-23" d="M62.07,10H45l-.37-.37H62.44l-.37.37"/><path class="cls-24" d="M62.44,9.59H44.59l-.4-.4H62.84l-.4.4"/><path class="cls-25" d="M62.84,9.19H44.19l-.41-.41H63.25l-.41.41"/><path class="cls-26" d="M63.25,8.78H43.78l-.44-.44H63.69l-.44.44"/><path class="cls-27" d="M63.69,8.34H43.34l-.43-.43H64.12l-.43.43"/><path class="cls-28" d="M64.12,7.91H42.91l-.39-.39h22l-.39.39"/><path class="cls-29" d="M64.51,7.52h-22l-.28-.28H64.79l-.28.28"/><path class="cls-30" d="M64.79,7.24H42.24l0,0H64.81l0,0"/></g></g></g></g></g></g></g></g></svg>