<svg xmlns="http://www.w3.org/2000/svg" width="500" height="500" viewBox="0 0 500 500">
  <g id="Group_26" data-name="Group 26" transform="translate(-1747 1569)">
    <rect id="Rectangle_19" data-name="Rectangle 19" width="500" height="500" transform="translate(1747 -1569)"/>
    <g id="Group_18" data-name="Group 18" transform="translate(1850.723 -1553.043)">
      <path id="Path_1" data-name="Path 1" d="M633.3,813.842s-.2-54.637.117-81.531c.1-8.214-1.628-16.21-6.12-22.3-6.384-8.648-14.257-17.664-25-20.007-10.809-2.355-22.676-2.278-33.221,2.756-8.428,4.026-14.733,10.684-19.334,19.026a47.84,47.84,0,0,0-6.245,24.865c.48,25.286,0,77.189,0,77.189l-101.214-.418s41.654-355.018,42.055-365.3H692.027c3.217,9.049,42.634,365.72,42.634,365.72Z" transform="translate(-441.833 -345.33)" fill="#fefefe"/>
      <path id="Path_2" data-name="Path 2" d="M442.1,486.482V407.605H498.9v44.159h42.073V408.676c10.3-1.955,62.505-2.46,94.73-.976v43.774h44.966V407.239h54.742v79.243Z" transform="translate(-442.103 -406.839)" fill="#fefefe"/>
    </g>
  </g>
</svg>
