<svg xmlns="http://www.w3.org/2000/svg" width="700" height="700" viewBox="0 0 700 700">
  <g id="Group_40" data-name="Group 40" transform="translate(-6860 -2064)">
    <rect id="Rectangle_18" data-name="Rectangle 18" width="700" height="700" rx="350" transform="translate(6860 2064)" fill="#fff"/>
    <g id="Group_27" data-name="Group 27" transform="translate(4865.68 3803.041)">
      <g id="Group_20" data-name="Group 20" transform="translate(2098.319 -1624.043)">
        <g id="Group_3" data-name="Group 3">
          <path id="Path_6" data-name="Path 6" d="M662.89,791.37c-11.106,7.9-21.821,15.4-32.41,23.071-12.963,9.392-25.775,18.989-38.738,28.378-12.161,8.809-24.456,17.438-36.653,26.2-9.891,7.1-10.3,6.37-19.607,13.108,0,0-17.828,11.337-24.651,7.232s-4.692-16.534-2.642-23.653c12.066-41.915,27.142-82.816,40.643-124.244,2.855-8.759,4.81-17.812,7.443-27.724-45.964-34.516-83.439-60.186-129.115-95.232,0,0-11.723-10.644-9.565-17.73s10.5-10.649,18.2-10.613c53.446.238,106.9.125,161.511.125,17.013-52.451,45.523-139.626,45.523-139.626,3.16-4.887,9.965-29.623,20.159-29.623S679.7,439.927,683.6,450.662c4.864,13.365,8.4,27.2,12.755,40.756,7.586,23.574,15.334,47.094,23.078,70.617,3.007,9.136,6.177,18.219,9.425,27.769H886.583s17.357,1.03,21.159,7.437-8.714,19.818-8.714,19.818-18.2,15.765-33.128,26.675c-12.874,9.4-26.066,18.374-38.961,27.757-12.966,9.437-25.7,19.194-38.6,28.711-6.061,4.466-12.292,8.7-19.063,13.474,3.313,11.971,6.1,24.138,10.049,35.916,10.182,30.4,21.455,60.449,31.04,91.032,3.158,10.072,6.554,20.112,9.386,30.244,1.652,5.9,1.688,15.4-5.231,18.616s-22.443-5.762-22.443-5.762c-12.446-9.11-18.715-12.973-32.7-23.209-14.811-10.842-29.207-22.334-44.586-32.3-10.274-6.659-19.438-14.719-29.712-21.3C677.633,802.138,670.57,796.781,662.89,791.37Z" transform="translate(-417.329 -421.037)"/>
        </g>
      </g>
    </g>
  </g>
</svg>
