<svg xmlns="http://www.w3.org/2000/svg" width="500" height="500" viewBox="0 0 500 500">
  <g id="Group_24" data-name="Group 24" transform="translate(-2496 1349)">
    <rect id="Rectangle_16" data-name="Rectangle 16" width="500" height="500" transform="translate(2496 -1349)"/>
    <g id="Group_22" data-name="Group 22" transform="translate(2509.298 -1343.681)">
      <g id="Group_12" data-name="Group 12" transform="translate(0 0)">
        <path id="Path_29" data-name="Path 29" d="M556.83,407.625c27.184,4.58,50.662,9.045,74.311,12.261,9.247,1.255,18.88-.25,28.332-.588,25.088-.894,50.168-2.112,75.263-2.492,4.287-.067,9.489,2.394,12.814,5.335C784.556,454.87,820.695,488.4,848.3,530.008c6.965,10.5,16.4,19.348,23.431,29.814,2.9,4.322,4.442,11.415,3.154,16.348a398.077,398.077,0,0,1-15.3,46.875c-3.346,8.388-3.292,15.221,1.083,22.9,5.6,9.838,9.644,20.641,15.846,30.048,9.984,15.138,9.718,29.245,2.277,45.708-20.176,44.628-36.561,90.673-44.665,139.242-1.681,10.072-6.593,14.157-16.995,13.351-10.574-.819-21.314.513-31.885-.314-29.378-2.3-57.49,3.417-84.684,13.505-30.308,11.247-59.258,12.354-88.33-4.335-12.258-7.037-25.979-13.048-39.745-15.447-10.4-1.814-22.114,2.093-32.912,4.79-20.13,5.029-40.09,10.787-59.968,16.753-7.731,2.319-11.465-.721-14.173-7.33-16.245-39.673-31.691-79.71-49.282-118.779-7.559-16.785-5.633-32.354-2.215-48.71,5.051-24.16,12.926-48.053,14.9-72.439,2.013-24.9,19.048-37.12,33.976-51.907,9.67-9.58,20.3-18.2,29.766-27.971,2.553-2.636,3.423-7.912,3.324-11.934-.452-18.418-1.974-36.817-2.061-55.226-.021-4.641,3.157-9.766,6.008-13.872,15.109-21.75,30.383-43.391,46.1-64.7C549.03,412.194,554.285,409.609,556.83,407.625Zm-45.051,163.1c-18.952,17.7-37.165,34.715-55.5,51.84,2.008,1.856,2.822,3.218,3.949,3.567,35.093,10.843,70.13,21.88,105.4,32.135,8.266,2.4,17.742,4.277,25.939,2.678,41.617-8.117,83.008-17.388,124.412-26.556,2.37-.524,5.58-3.468,5.974-5.713,3.277-18.689,5.984-37.476,9.16-58.154-23.71,11.824-45.207,23.314-67.42,33.192-7.487,3.33-16.827,3.673-25.255,3.4-9.9-.324-19.734-2.769-29.588-4.362-23.846-3.856-48.473-4.285-69.8-18.362C530.788,578.933,521.264,575.394,511.78,570.721Zm172.833-78.489c-13.708-17.3-27.372-34.721-41.348-51.888-1.351-1.66-4.58-2.112-7.037-2.5-22.654-3.625-45.293-7.388-68.035-10.356-3.58-.468-9.314,1.739-11.231,4.6-14.439,21.521-28.17,43.516-42.314,65.665,26.194,8.862,51.048,17.63,76.186,25.484a28.324,28.324,0,0,0,17.186-.593C633.477,513.069,658.615,502.652,684.612,492.231ZM661.591,717.045c-29.109-1.87-55.253-3.452-81.38-5.263-13.505-.939-27.024-1.923-40.463-3.529-25.011-2.989-49.942-6.638-74.971-9.46-2.915-.33-7.8,2.013-9.08,4.5-5.657,11.008-10.327,22.521-15.3,33.742,1.511,1.42,2.314,2.734,3.447,3.16,31.54,11.83,63.013,23.859,94.79,35.016,4.819,1.691,11.848.806,16.559-1.521,31.136-15.38,61.944-31.426,92.779-47.415C651.966,724.2,655.49,721.221,661.591,717.045Z" transform="translate(-410.928 -407.625)" fill="#fff"/>
      </g>
    </g>
  </g>
</svg>
