<svg xmlns="http://www.w3.org/2000/svg" width="500" height="500" viewBox="0 0 500 500">
  <g id="Group_29" data-name="Group 29" transform="translate(-2762 1632)">
    <rect id="Rectangle_15" data-name="Rectangle 15" width="500" height="500" transform="translate(2762 -1632)"/>
    <g id="Group_19" data-name="Group 19" transform="translate(2775.298 -1618.702)">
      <path id="Path_4" data-name="Path 4" d="M494.663,255.668c4.087,1.629,8.366,3.29,12.611,5.033q33.744,13.853,67.469,27.753,43.174,17.888,86.25,36.009c1.328.56,2.381,2.419,3.005,3.906Q682.741,373,701.319,417.7c8.885,21.432,17.009,43.208,26.678,64.276,4.177,9.1,3.936,16.333-.05,25.243-9.8,21.9-18.542,44.265-27.676,66.457q-14.882,36.154-29.714,72.33c-1.693,4.116-3.728,8.109-5.17,12.308-1.408,4.1-4.467,6.052-8.111,7.553q-33.286,13.7-66.575,27.4-26.236,10.777-52.495,21.505c-13.674,5.618-27.3,11.359-41.033,16.831a8.875,8.875,0,0,1-6.044.021q-44.825-18.248-89.525-36.8-37.006-15.335-73.895-30.95a8.649,8.649,0,0,1-4.07-4.3q-19.046-45.528-37.824-91.167c-9.956-24.088-19.969-48.153-29.657-72.347-.805-2.01.226-5.123,1.169-7.407,12.268-29.677,24.726-59.274,37.03-88.936,9.8-23.633,19.4-47.353,29.3-70.945a9.826,9.826,0,0,1,4.978-4.482q44.572-18.884,89.275-37.46,36.539-15.21,73.164-30.206A30.133,30.133,0,0,1,494.663,255.668Zm2.481,239.746c.873.991,1.334,1.6,1.883,2.125a117.119,117.119,0,0,1,26.955,38.719c6.661,15.367,10.8,31.387,10.976,48.125.114,10.594-.978,21.217-1.842,31.8-1.151,14.084-5.617,27.345-10.816,40.362-2.093,5.242-4.567,10.333-7.156,16.138l103.093-42.775c-12.147-12.963-23.567-25.31-35.2-37.452-2.842-2.966-5.216-5.437-3.2-9.99.78-1.765.425-4.228.05-6.274-2.358-12.879-6.148-25.312-12.789-36.676-9.909-16.952-22.8-30.782-41.258-38.7C518.2,496.681,508.333,494.187,497.144,495.414Zm-4.079,2.465a36.089,36.089,0,0,0-4.377,3.252,111.007,111.007,0,0,1-40.009,26.486c-14.828,5.9-30.078,9.617-46.051,9.383-9.955-.146-20.043-.363-29.807-2.065a322.65,322.65,0,0,1-36.427-9.013c-6.693-1.991-12.926-5.526-20.6-8.91,2.078,5.319,3.6,9.423,5.274,13.467q17.737,42.94,35.522,85.86c1.224,2.96,2.553,3.592,5.148,1.025,7.938-7.856,16.054-15.535,24.148-23.233,4.207-4,8.491-7.924,12.8-11.818.662-.6,1.761-1.343,2.459-1.178,10.488,2.483,20.2-.684,29.858-4.018,21.711-7.492,39.344-20.246,51.457-40.094C489.6,525.321,493.842,512.838,493.065,497.88Zm4.457-5.2c7.781.5,15.34.538,22.758,1.572a113.43,113.43,0,0,1,39.651,12.97,150.62,150.62,0,0,1,46.338,39.823,200,200,0,0,1,23.306,39.336c2.488,5.428,4.291,11.17,6.805,17.825,14.5-34.987,28.509-68.8,42.606-102.819-17.743-.8-34.818-1.772-51.908-2.221-4.319-.113-6.938-1.672-9.015-5.084a10.563,10.563,0,0,0-2.511-2.911c-16.252-12.307-34.52-19.711-54.842-21.322-13.363-1.059-26.619.123-39.06,5.809C512.615,479.785,503.46,483.81,497.521,492.677ZM501.465,309.2c-.52,8.79-1.139,16.675-1.408,24.571-.227,6.661.293,13.36-.163,20-.319,4.632-.219,10.593-2.935,13.515a98.869,98.869,0,0,0-19.034,28.572,102.093,102.093,0,0,0-8.2,34.688c-.754,13.673,1.125,26.868,6.951,39.327a65.729,65.729,0,0,0,16.5,22.557c0-2.651.073-4.374-.011-6.088-.974-19.842,4.126-38.473,12.955-55.842A138.942,138.942,0,0,1,542.2,385.942c13.783-11.332,28.618-20.781,45.123-27.553,5.239-2.149,10.579-4.056,17.062-6.527Zm-30.218,6.693-103.125,42.7c12.057,12.8,23.784,25.28,35.544,37.725,2.225,2.356,4.3,4.368,2.851,8.312-.895,2.432-.589,5.543-.093,8.213,4.192,22.56,13.319,42.5,30.259,58.633,10.808,10.29,23.112,17.424,37.639,20.461,5.3,1.107,10.836,1.051,16.266,1.527l.7-1.761c-4.51-4.214-9.808-7.852-13.385-12.749-11.209-15.349-19.575-32.084-23.83-50.885-3.038-13.424-3.224-26.872-2.8-40.414a79.435,79.435,0,0,1,1.98-16.158c3.134-12.912,6.524-25.777,10.361-38.5C465.283,327.484,468.3,322.377,471.246,315.894Zm20.349,180.069c-74.338-2.238-114.851-46.474-140.043-110.732-13.975,33.765-28,67.661-42.655,103.059,14.25,0,27.2-.379,40.115.134,8.574.34,18.427-1.645,23.586,8.581a2.133,2.133,0,0,0,.7.665c19.4,13.808,40.7,21.346,64.809,20.976C459.2,518.322,476.762,510.5,491.595,495.963Zm3.553-4.171a118.666,118.666,0,0,1,41.244-29.554,124.636,124.636,0,0,1,48.134-10.888c10.261-.165,20.546,1.154,30.821,1.791,12.862.8,24.875,5.061,36.838,9.325,6.5,2.317,12.7,5.472,20.294,8.8-14.4-34.785-28.312-68.4-42.582-102.873-11.291,10.712-22.071,21.108-33.06,31.28-4.384,4.058-8.276,7.673-15.876,7.052-12.491-1.02-24.408,3.865-35.53,9.463-12.647,6.365-23.945,14.562-32.972,25.835C501.062,456.26,494.544,471.974,495.148,491.792ZM385.212,636.983l103.084,42.7c0-16.694-.048-32.051.023-47.408.029-6.427.938-12.521,7.752-15.683a5.141,5.141,0,0,0,1.685-1.732c11.837-16.325,19.038-34.509,20.706-54.6,1.654-19.911-2.782-38.446-14.722-54.788-2.349-3.215-5.262-6.018-7.689-8.758-.982,9.612-1.883,18.875-2.882,28.128-1.336,12.363-5.841,23.944-11.525,34.621-11.9,22.354-29.171,40.337-50.224,54.393A208.206,208.206,0,0,1,385.212,636.983Z" transform="translate(-255.87 -255.668)" fill="#fff"/>
    </g>
  </g>
</svg>
